<mxfile host="app.diagrams.net" agent="Mozilla/5.0 (Windows NT 10.0; Win64; x64) AppleWebKit/537.36 (KHTML, like Gecko) Chrome/131.0.0.0 Safari/537.36 OPR/116.0.0.0" version="26.0.14">
  <diagram name="Страница — 1" id="1IhqNI-9ftxUwjLDLz9c">
    <mxGraphModel dx="2203" dy="1203" grid="1" gridSize="10" guides="1" tooltips="1" connect="1" arrows="1" fold="1" page="1" pageScale="1" pageWidth="827" pageHeight="1169" math="0" shadow="0">
      <root>
        <mxCell id="0" />
        <mxCell id="1" parent="0" />
        <mxCell id="y_bu4ISOqVrsxOuGK8KF-1" value="&lt;i&gt;АИгровая платформа&lt;/i&gt;" style="swimlane;fontStyle=1;align=center;verticalAlign=top;childLayout=stackLayout;horizontal=1;startSize=26;horizontalStack=0;resizeParent=1;resizeParentMax=0;resizeLast=0;collapsible=1;marginBottom=0;whiteSpace=wrap;html=1;" parent="1" vertex="1">
          <mxGeometry x="190" y="610" width="210" height="86" as="geometry" />
        </mxCell>
        <mxCell id="y_bu4ISOqVrsxOuGK8KF-2" value="+ field: type" style="text;strokeColor=none;fillColor=none;align=left;verticalAlign=top;spacingLeft=4;spacingRight=4;overflow=hidden;rotatable=0;points=[[0,0.5],[1,0.5]];portConstraint=eastwest;whiteSpace=wrap;html=1;" parent="y_bu4ISOqVrsxOuGK8KF-1" vertex="1">
          <mxGeometry y="26" width="210" height="26" as="geometry" />
        </mxCell>
        <mxCell id="y_bu4ISOqVrsxOuGK8KF-3" value="" style="line;strokeWidth=1;fillColor=none;align=left;verticalAlign=middle;spacingTop=-1;spacingLeft=3;spacingRight=3;rotatable=0;labelPosition=right;points=[];portConstraint=eastwest;strokeColor=inherit;" parent="y_bu4ISOqVrsxOuGK8KF-1" vertex="1">
          <mxGeometry y="52" width="210" height="8" as="geometry" />
        </mxCell>
        <mxCell id="y_bu4ISOqVrsxOuGK8KF-4" value="+ method(type): type" style="text;strokeColor=none;fillColor=none;align=left;verticalAlign=top;spacingLeft=4;spacingRight=4;overflow=hidden;rotatable=0;points=[[0,0.5],[1,0.5]];portConstraint=eastwest;whiteSpace=wrap;html=1;" parent="y_bu4ISOqVrsxOuGK8KF-1" vertex="1">
          <mxGeometry y="60" width="210" height="26" as="geometry" />
        </mxCell>
        <mxCell id="y_bu4ISOqVrsxOuGK8KF-6" value="&lt;i&gt;Операционная система&lt;/i&gt;" style="swimlane;fontStyle=1;align=center;verticalAlign=top;childLayout=stackLayout;horizontal=1;startSize=26;horizontalStack=0;resizeParent=1;resizeParentMax=0;resizeLast=0;collapsible=1;marginBottom=0;whiteSpace=wrap;html=1;" parent="1" vertex="1">
          <mxGeometry x="190" y="400" width="210" height="86" as="geometry" />
        </mxCell>
        <mxCell id="y_bu4ISOqVrsxOuGK8KF-7" value="+ field: type" style="text;strokeColor=none;fillColor=none;align=left;verticalAlign=top;spacingLeft=4;spacingRight=4;overflow=hidden;rotatable=0;points=[[0,0.5],[1,0.5]];portConstraint=eastwest;whiteSpace=wrap;html=1;" parent="y_bu4ISOqVrsxOuGK8KF-6" vertex="1">
          <mxGeometry y="26" width="210" height="26" as="geometry" />
        </mxCell>
        <mxCell id="y_bu4ISOqVrsxOuGK8KF-8" value="" style="line;strokeWidth=1;fillColor=none;align=left;verticalAlign=middle;spacingTop=-1;spacingLeft=3;spacingRight=3;rotatable=0;labelPosition=right;points=[];portConstraint=eastwest;strokeColor=inherit;" parent="y_bu4ISOqVrsxOuGK8KF-6" vertex="1">
          <mxGeometry y="52" width="210" height="8" as="geometry" />
        </mxCell>
        <mxCell id="y_bu4ISOqVrsxOuGK8KF-9" value="+ method(type): type" style="text;strokeColor=none;fillColor=none;align=left;verticalAlign=top;spacingLeft=4;spacingRight=4;overflow=hidden;rotatable=0;points=[[0,0.5],[1,0.5]];portConstraint=eastwest;whiteSpace=wrap;html=1;" parent="y_bu4ISOqVrsxOuGK8KF-6" vertex="1">
          <mxGeometry y="60" width="210" height="26" as="geometry" />
        </mxCell>
        <mxCell id="y_bu4ISOqVrsxOuGK8KF-10" value="&lt;i&gt;АПрограмма&lt;/i&gt;" style="swimlane;fontStyle=1;align=center;verticalAlign=top;childLayout=stackLayout;horizontal=1;startSize=26;horizontalStack=0;resizeParent=1;resizeParentMax=0;resizeLast=0;collapsible=1;marginBottom=0;whiteSpace=wrap;html=1;" parent="1" vertex="1">
          <mxGeometry x="910" y="190" width="170" height="86" as="geometry" />
        </mxCell>
        <mxCell id="y_bu4ISOqVrsxOuGK8KF-11" value="+ field: type" style="text;strokeColor=none;fillColor=none;align=left;verticalAlign=top;spacingLeft=4;spacingRight=4;overflow=hidden;rotatable=0;points=[[0,0.5],[1,0.5]];portConstraint=eastwest;whiteSpace=wrap;html=1;" parent="y_bu4ISOqVrsxOuGK8KF-10" vertex="1">
          <mxGeometry y="26" width="170" height="26" as="geometry" />
        </mxCell>
        <mxCell id="y_bu4ISOqVrsxOuGK8KF-12" value="" style="line;strokeWidth=1;fillColor=none;align=left;verticalAlign=middle;spacingTop=-1;spacingLeft=3;spacingRight=3;rotatable=0;labelPosition=right;points=[];portConstraint=eastwest;strokeColor=inherit;" parent="y_bu4ISOqVrsxOuGK8KF-10" vertex="1">
          <mxGeometry y="52" width="170" height="8" as="geometry" />
        </mxCell>
        <mxCell id="y_bu4ISOqVrsxOuGK8KF-13" value="+ method(type): type" style="text;strokeColor=none;fillColor=none;align=left;verticalAlign=top;spacingLeft=4;spacingRight=4;overflow=hidden;rotatable=0;points=[[0,0.5],[1,0.5]];portConstraint=eastwest;whiteSpace=wrap;html=1;" parent="y_bu4ISOqVrsxOuGK8KF-10" vertex="1">
          <mxGeometry y="60" width="170" height="26" as="geometry" />
        </mxCell>
        <mxCell id="y_bu4ISOqVrsxOuGK8KF-14" value="&lt;i&gt;Web приложение&lt;/i&gt;" style="swimlane;fontStyle=1;align=center;verticalAlign=top;childLayout=stackLayout;horizontal=1;startSize=26;horizontalStack=0;resizeParent=1;resizeParentMax=0;resizeLast=0;collapsible=1;marginBottom=0;whiteSpace=wrap;html=1;" parent="1" vertex="1">
          <mxGeometry x="1350" y="400" width="190" height="86" as="geometry" />
        </mxCell>
        <mxCell id="y_bu4ISOqVrsxOuGK8KF-15" value="+ field: type" style="text;strokeColor=none;fillColor=none;align=left;verticalAlign=top;spacingLeft=4;spacingRight=4;overflow=hidden;rotatable=0;points=[[0,0.5],[1,0.5]];portConstraint=eastwest;whiteSpace=wrap;html=1;" parent="y_bu4ISOqVrsxOuGK8KF-14" vertex="1">
          <mxGeometry y="26" width="190" height="26" as="geometry" />
        </mxCell>
        <mxCell id="y_bu4ISOqVrsxOuGK8KF-16" value="" style="line;strokeWidth=1;fillColor=none;align=left;verticalAlign=middle;spacingTop=-1;spacingLeft=3;spacingRight=3;rotatable=0;labelPosition=right;points=[];portConstraint=eastwest;strokeColor=inherit;" parent="y_bu4ISOqVrsxOuGK8KF-14" vertex="1">
          <mxGeometry y="52" width="190" height="8" as="geometry" />
        </mxCell>
        <mxCell id="y_bu4ISOqVrsxOuGK8KF-17" value="+ method(type): type" style="text;strokeColor=none;fillColor=none;align=left;verticalAlign=top;spacingLeft=4;spacingRight=4;overflow=hidden;rotatable=0;points=[[0,0.5],[1,0.5]];portConstraint=eastwest;whiteSpace=wrap;html=1;" parent="y_bu4ISOqVrsxOuGK8KF-14" vertex="1">
          <mxGeometry y="60" width="190" height="26" as="geometry" />
        </mxCell>
        <mxCell id="y_bu4ISOqVrsxOuGK8KF-18" value="&lt;i&gt;Облачный сервис&lt;/i&gt;" style="swimlane;fontStyle=1;align=center;verticalAlign=top;childLayout=stackLayout;horizontal=1;startSize=26;horizontalStack=0;resizeParent=1;resizeParentMax=0;resizeLast=0;collapsible=1;marginBottom=0;whiteSpace=wrap;html=1;" parent="1" vertex="1">
          <mxGeometry x="1340" y="585" width="190" height="86" as="geometry" />
        </mxCell>
        <mxCell id="y_bu4ISOqVrsxOuGK8KF-19" value="+ field: type" style="text;strokeColor=none;fillColor=none;align=left;verticalAlign=top;spacingLeft=4;spacingRight=4;overflow=hidden;rotatable=0;points=[[0,0.5],[1,0.5]];portConstraint=eastwest;whiteSpace=wrap;html=1;" parent="y_bu4ISOqVrsxOuGK8KF-18" vertex="1">
          <mxGeometry y="26" width="190" height="26" as="geometry" />
        </mxCell>
        <mxCell id="y_bu4ISOqVrsxOuGK8KF-20" value="" style="line;strokeWidth=1;fillColor=none;align=left;verticalAlign=middle;spacingTop=-1;spacingLeft=3;spacingRight=3;rotatable=0;labelPosition=right;points=[];portConstraint=eastwest;strokeColor=inherit;" parent="y_bu4ISOqVrsxOuGK8KF-18" vertex="1">
          <mxGeometry y="52" width="190" height="8" as="geometry" />
        </mxCell>
        <mxCell id="y_bu4ISOqVrsxOuGK8KF-21" value="+ method(type): type" style="text;strokeColor=none;fillColor=none;align=left;verticalAlign=top;spacingLeft=4;spacingRight=4;overflow=hidden;rotatable=0;points=[[0,0.5],[1,0.5]];portConstraint=eastwest;whiteSpace=wrap;html=1;" parent="y_bu4ISOqVrsxOuGK8KF-18" vertex="1">
          <mxGeometry y="60" width="190" height="26" as="geometry" />
        </mxCell>
        <mxCell id="y_bu4ISOqVrsxOuGK8KF-22" value="&lt;i&gt;Антивирус&lt;/i&gt;" style="swimlane;fontStyle=1;align=center;verticalAlign=top;childLayout=stackLayout;horizontal=1;startSize=26;horizontalStack=0;resizeParent=1;resizeParentMax=0;resizeLast=0;collapsible=1;marginBottom=0;whiteSpace=wrap;html=1;" parent="1" vertex="1">
          <mxGeometry x="540" y="400" width="190" height="86" as="geometry" />
        </mxCell>
        <mxCell id="y_bu4ISOqVrsxOuGK8KF-23" value="+ field: type" style="text;strokeColor=none;fillColor=none;align=left;verticalAlign=top;spacingLeft=4;spacingRight=4;overflow=hidden;rotatable=0;points=[[0,0.5],[1,0.5]];portConstraint=eastwest;whiteSpace=wrap;html=1;" parent="y_bu4ISOqVrsxOuGK8KF-22" vertex="1">
          <mxGeometry y="26" width="190" height="26" as="geometry" />
        </mxCell>
        <mxCell id="y_bu4ISOqVrsxOuGK8KF-24" value="" style="line;strokeWidth=1;fillColor=none;align=left;verticalAlign=middle;spacingTop=-1;spacingLeft=3;spacingRight=3;rotatable=0;labelPosition=right;points=[];portConstraint=eastwest;strokeColor=inherit;" parent="y_bu4ISOqVrsxOuGK8KF-22" vertex="1">
          <mxGeometry y="52" width="190" height="8" as="geometry" />
        </mxCell>
        <mxCell id="y_bu4ISOqVrsxOuGK8KF-25" value="+ method(type): type" style="text;strokeColor=none;fillColor=none;align=left;verticalAlign=top;spacingLeft=4;spacingRight=4;overflow=hidden;rotatable=0;points=[[0,0.5],[1,0.5]];portConstraint=eastwest;whiteSpace=wrap;html=1;" parent="y_bu4ISOqVrsxOuGK8KF-22" vertex="1">
          <mxGeometry y="60" width="190" height="26" as="geometry" />
        </mxCell>
        <mxCell id="y_bu4ISOqVrsxOuGK8KF-26" value="&lt;i&gt;Мобильное приложение&lt;/i&gt;" style="swimlane;fontStyle=1;align=center;verticalAlign=top;childLayout=stackLayout;horizontal=1;startSize=26;horizontalStack=0;resizeParent=1;resizeParentMax=0;resizeLast=0;collapsible=1;marginBottom=0;whiteSpace=wrap;html=1;" parent="1" vertex="1">
          <mxGeometry x="1140" y="400" width="170" height="86" as="geometry" />
        </mxCell>
        <mxCell id="y_bu4ISOqVrsxOuGK8KF-27" value="+ field: type" style="text;strokeColor=none;fillColor=none;align=left;verticalAlign=top;spacingLeft=4;spacingRight=4;overflow=hidden;rotatable=0;points=[[0,0.5],[1,0.5]];portConstraint=eastwest;whiteSpace=wrap;html=1;" parent="y_bu4ISOqVrsxOuGK8KF-26" vertex="1">
          <mxGeometry y="26" width="170" height="26" as="geometry" />
        </mxCell>
        <mxCell id="y_bu4ISOqVrsxOuGK8KF-28" value="" style="line;strokeWidth=1;fillColor=none;align=left;verticalAlign=middle;spacingTop=-1;spacingLeft=3;spacingRight=3;rotatable=0;labelPosition=right;points=[];portConstraint=eastwest;strokeColor=inherit;" parent="y_bu4ISOqVrsxOuGK8KF-26" vertex="1">
          <mxGeometry y="52" width="170" height="8" as="geometry" />
        </mxCell>
        <mxCell id="y_bu4ISOqVrsxOuGK8KF-29" value="+ method(type): type" style="text;strokeColor=none;fillColor=none;align=left;verticalAlign=top;spacingLeft=4;spacingRight=4;overflow=hidden;rotatable=0;points=[[0,0.5],[1,0.5]];portConstraint=eastwest;whiteSpace=wrap;html=1;" parent="y_bu4ISOqVrsxOuGK8KF-26" vertex="1">
          <mxGeometry y="60" width="170" height="26" as="geometry" />
        </mxCell>
        <mxCell id="y_bu4ISOqVrsxOuGK8KF-30" value="&lt;i&gt;Графический редактор&lt;/i&gt;" style="swimlane;fontStyle=1;align=center;verticalAlign=top;childLayout=stackLayout;horizontal=1;startSize=26;horizontalStack=0;resizeParent=1;resizeParentMax=0;resizeLast=0;collapsible=1;marginBottom=0;whiteSpace=wrap;html=1;" parent="1" vertex="1">
          <mxGeometry x="827" y="400" width="180" height="86" as="geometry" />
        </mxCell>
        <mxCell id="y_bu4ISOqVrsxOuGK8KF-31" value="+ field: type" style="text;strokeColor=none;fillColor=none;align=left;verticalAlign=top;spacingLeft=4;spacingRight=4;overflow=hidden;rotatable=0;points=[[0,0.5],[1,0.5]];portConstraint=eastwest;whiteSpace=wrap;html=1;" parent="y_bu4ISOqVrsxOuGK8KF-30" vertex="1">
          <mxGeometry y="26" width="180" height="26" as="geometry" />
        </mxCell>
        <mxCell id="y_bu4ISOqVrsxOuGK8KF-32" value="" style="line;strokeWidth=1;fillColor=none;align=left;verticalAlign=middle;spacingTop=-1;spacingLeft=3;spacingRight=3;rotatable=0;labelPosition=right;points=[];portConstraint=eastwest;strokeColor=inherit;" parent="y_bu4ISOqVrsxOuGK8KF-30" vertex="1">
          <mxGeometry y="52" width="180" height="8" as="geometry" />
        </mxCell>
        <mxCell id="y_bu4ISOqVrsxOuGK8KF-33" value="+ method(type): type" style="text;strokeColor=none;fillColor=none;align=left;verticalAlign=top;spacingLeft=4;spacingRight=4;overflow=hidden;rotatable=0;points=[[0,0.5],[1,0.5]];portConstraint=eastwest;whiteSpace=wrap;html=1;" parent="y_bu4ISOqVrsxOuGK8KF-30" vertex="1">
          <mxGeometry y="60" width="180" height="26" as="geometry" />
        </mxCell>
        <mxCell id="y_bu4ISOqVrsxOuGK8KF-36" value="" style="endArrow=block;endSize=16;endFill=0;html=1;rounded=0;entryX=1;entryY=0.5;entryDx=0;entryDy=0;edgeStyle=orthogonalEdgeStyle;exitX=0.465;exitY=0.002;exitDx=0;exitDy=0;exitPerimeter=0;" parent="1" source="y_bu4ISOqVrsxOuGK8KF-26" edge="1">
          <mxGeometry width="160" relative="1" as="geometry">
            <mxPoint x="1230" y="387" as="sourcePoint" />
            <mxPoint x="1000" y="276" as="targetPoint" />
            <Array as="points">
              <mxPoint x="1210" y="330" />
              <mxPoint x="1000" y="330" />
            </Array>
          </mxGeometry>
        </mxCell>
        <mxCell id="y_bu4ISOqVrsxOuGK8KF-37" value="" style="endArrow=block;endSize=16;endFill=0;html=1;rounded=0;edgeStyle=orthogonalEdgeStyle;entryX=0.536;entryY=0.991;entryDx=0;entryDy=0;entryPerimeter=0;" parent="1" edge="1">
          <mxGeometry width="160" relative="1" as="geometry">
            <mxPoint x="920" y="400" as="sourcePoint" />
            <mxPoint x="1000.0799999999997" y="275.996" as="targetPoint" />
            <Array as="points">
              <mxPoint x="920" y="400" />
              <mxPoint x="920" y="330" />
              <mxPoint x="1000" y="330" />
            </Array>
          </mxGeometry>
        </mxCell>
        <mxCell id="y_bu4ISOqVrsxOuGK8KF-41" value="" style="endArrow=none;html=1;edgeStyle=orthogonalEdgeStyle;rounded=0;entryX=0.5;entryY=0;entryDx=0;entryDy=0;" parent="1" target="y_bu4ISOqVrsxOuGK8KF-22" edge="1">
          <mxGeometry relative="1" as="geometry">
            <mxPoint x="920" y="330" as="sourcePoint" />
            <mxPoint x="330" y="320" as="targetPoint" />
            <Array as="points">
              <mxPoint x="635" y="330" />
            </Array>
          </mxGeometry>
        </mxCell>
        <mxCell id="y_bu4ISOqVrsxOuGK8KF-47" value="" style="endArrow=none;html=1;edgeStyle=orthogonalEdgeStyle;rounded=0;entryX=0.5;entryY=0;entryDx=0;entryDy=0;" parent="1" edge="1">
          <mxGeometry relative="1" as="geometry">
            <mxPoint x="1200" y="330" as="sourcePoint" />
            <mxPoint x="1430" y="400" as="targetPoint" />
            <Array as="points">
              <mxPoint x="1430" y="330" />
            </Array>
          </mxGeometry>
        </mxCell>
        <mxCell id="y_bu4ISOqVrsxOuGK8KF-48" value="" style="endArrow=block;endSize=16;endFill=0;html=1;rounded=0;entryX=1;entryY=0.5;entryDx=0;entryDy=0;edgeStyle=orthogonalEdgeStyle;" parent="1" edge="1">
          <mxGeometry width="160" relative="1" as="geometry">
            <mxPoint x="1430" y="585" as="sourcePoint" />
            <mxPoint x="1430" y="486.004" as="targetPoint" />
            <Array as="points">
              <mxPoint x="1430" y="585" />
            </Array>
          </mxGeometry>
        </mxCell>
        <mxCell id="y_bu4ISOqVrsxOuGK8KF-49" value="&lt;i&gt;Командная утилита&lt;/i&gt;" style="swimlane;fontStyle=1;align=center;verticalAlign=top;childLayout=stackLayout;horizontal=1;startSize=26;horizontalStack=0;resizeParent=1;resizeParentMax=0;resizeLast=0;collapsible=1;marginBottom=0;whiteSpace=wrap;html=1;" parent="1" vertex="1">
          <mxGeometry x="1610" y="400" width="190" height="86" as="geometry" />
        </mxCell>
        <mxCell id="y_bu4ISOqVrsxOuGK8KF-50" value="+ field: type" style="text;strokeColor=none;fillColor=none;align=left;verticalAlign=top;spacingLeft=4;spacingRight=4;overflow=hidden;rotatable=0;points=[[0,0.5],[1,0.5]];portConstraint=eastwest;whiteSpace=wrap;html=1;" parent="y_bu4ISOqVrsxOuGK8KF-49" vertex="1">
          <mxGeometry y="26" width="190" height="26" as="geometry" />
        </mxCell>
        <mxCell id="y_bu4ISOqVrsxOuGK8KF-51" value="" style="line;strokeWidth=1;fillColor=none;align=left;verticalAlign=middle;spacingTop=-1;spacingLeft=3;spacingRight=3;rotatable=0;labelPosition=right;points=[];portConstraint=eastwest;strokeColor=inherit;" parent="y_bu4ISOqVrsxOuGK8KF-49" vertex="1">
          <mxGeometry y="52" width="190" height="8" as="geometry" />
        </mxCell>
        <mxCell id="y_bu4ISOqVrsxOuGK8KF-52" value="+ method(type): type" style="text;strokeColor=none;fillColor=none;align=left;verticalAlign=top;spacingLeft=4;spacingRight=4;overflow=hidden;rotatable=0;points=[[0,0.5],[1,0.5]];portConstraint=eastwest;whiteSpace=wrap;html=1;" parent="y_bu4ISOqVrsxOuGK8KF-49" vertex="1">
          <mxGeometry y="60" width="190" height="26" as="geometry" />
        </mxCell>
        <mxCell id="y_bu4ISOqVrsxOuGK8KF-53" value="&lt;i&gt;Консольная игра&lt;/i&gt;" style="swimlane;fontStyle=1;align=center;verticalAlign=top;childLayout=stackLayout;horizontal=1;startSize=26;horizontalStack=0;resizeParent=1;resizeParentMax=0;resizeLast=0;collapsible=1;marginBottom=0;whiteSpace=wrap;html=1;" parent="1" vertex="1">
          <mxGeometry x="1840" y="400" width="190" height="86" as="geometry" />
        </mxCell>
        <mxCell id="y_bu4ISOqVrsxOuGK8KF-54" value="+ field: type" style="text;strokeColor=none;fillColor=none;align=left;verticalAlign=top;spacingLeft=4;spacingRight=4;overflow=hidden;rotatable=0;points=[[0,0.5],[1,0.5]];portConstraint=eastwest;whiteSpace=wrap;html=1;" parent="y_bu4ISOqVrsxOuGK8KF-53" vertex="1">
          <mxGeometry y="26" width="190" height="26" as="geometry" />
        </mxCell>
        <mxCell id="y_bu4ISOqVrsxOuGK8KF-55" value="" style="line;strokeWidth=1;fillColor=none;align=left;verticalAlign=middle;spacingTop=-1;spacingLeft=3;spacingRight=3;rotatable=0;labelPosition=right;points=[];portConstraint=eastwest;strokeColor=inherit;" parent="y_bu4ISOqVrsxOuGK8KF-53" vertex="1">
          <mxGeometry y="52" width="190" height="8" as="geometry" />
        </mxCell>
        <mxCell id="y_bu4ISOqVrsxOuGK8KF-56" value="+ method(type): type" style="text;strokeColor=none;fillColor=none;align=left;verticalAlign=top;spacingLeft=4;spacingRight=4;overflow=hidden;rotatable=0;points=[[0,0.5],[1,0.5]];portConstraint=eastwest;whiteSpace=wrap;html=1;" parent="y_bu4ISOqVrsxOuGK8KF-53" vertex="1">
          <mxGeometry y="60" width="190" height="26" as="geometry" />
        </mxCell>
        <mxCell id="y_bu4ISOqVrsxOuGK8KF-57" value="" style="endArrow=none;html=1;edgeStyle=orthogonalEdgeStyle;rounded=0;entryX=0.5;entryY=0;entryDx=0;entryDy=0;" parent="1" edge="1">
          <mxGeometry relative="1" as="geometry">
            <mxPoint x="1430" y="330" as="sourcePoint" />
            <mxPoint x="1930" y="400" as="targetPoint" />
            <Array as="points">
              <mxPoint x="1930" y="330" />
            </Array>
          </mxGeometry>
        </mxCell>
        <mxCell id="y_bu4ISOqVrsxOuGK8KF-58" value="" style="endArrow=none;html=1;edgeStyle=orthogonalEdgeStyle;rounded=0;entryX=0.5;entryY=0;entryDx=0;entryDy=0;" parent="1" edge="1">
          <mxGeometry relative="1" as="geometry">
            <mxPoint x="1430" y="330" as="sourcePoint" />
            <mxPoint x="1710" y="400" as="targetPoint" />
            <Array as="points">
              <mxPoint x="1710" y="330" />
            </Array>
          </mxGeometry>
        </mxCell>
        <mxCell id="00rmLL2c76dwnM34byXK-1" value="" style="endArrow=block;endSize=16;endFill=0;html=1;rounded=0;edgeStyle=orthogonalEdgeStyle;exitX=0.5;exitY=0;exitDx=0;exitDy=0;entryX=0.499;entryY=1.007;entryDx=0;entryDy=0;entryPerimeter=0;" edge="1" parent="1" source="y_bu4ISOqVrsxOuGK8KF-1" target="y_bu4ISOqVrsxOuGK8KF-9">
          <mxGeometry width="160" relative="1" as="geometry">
            <mxPoint x="190.00000000000003" y="760" as="sourcePoint" />
            <mxPoint x="300" y="500" as="targetPoint" />
            <Array as="points">
              <mxPoint x="295" y="580" />
              <mxPoint x="295" y="580" />
            </Array>
          </mxGeometry>
        </mxCell>
        <mxCell id="00rmLL2c76dwnM34byXK-2" value="" style="endArrow=none;html=1;edgeStyle=orthogonalEdgeStyle;rounded=0;entryX=0.5;entryY=0;entryDx=0;entryDy=0;" edge="1" parent="1">
          <mxGeometry relative="1" as="geometry">
            <mxPoint x="640" y="330" as="sourcePoint" />
            <mxPoint x="290" y="400" as="targetPoint" />
            <Array as="points">
              <mxPoint x="290" y="330" />
            </Array>
          </mxGeometry>
        </mxCell>
      </root>
    </mxGraphModel>
  </diagram>
</mxfile>
